{
    "asset" : {
        "generator" : "Khronos glTF Blender I/O v1.2.75",
        "version" : "2.0"
    },
    "scene" : 0,
    "scenes" : [
        {
            "extras" : {
                "glTF2ExportSettings" : {
                    "export_animations" : 1,
                    "export_cameras" : 0,
                    "export_colors" : 1,
                    "export_extras" : 1,
                    "export_force_sampling" : 0,
                    "export_format" : "GLTF_EMBEDDED",
                    "export_image_format" : "AUTO",
                    "export_lights" : 0,
                    "export_materials" : 1,
                    "export_morph" : 1,
                    "export_normals" : 1,
                    "export_skins" : 1,
                    "export_texcoords" : 1,
                    "export_yup" : 1
                }
            },
            "name" : "Scene",
            "nodes" : [
                0
            ]
        }
    ],
    "nodes" : [
        {
            "extras" : {
                "sparkar_optimization" : {
                    "InvertedReducePercentage" : 0
                },
                "spark_blender_addon" : 1
            },
            "mesh" : 0,
            "name" : "the_ugly.Shape.001",
            "translation" : [
                -0.05347970128059387,
                3.4423727989196777,
                -1.1119136810302734
            ]
        }
    ],
    "materials" : [
        {
            "doubleSided" : true,
            "emissiveFactor" : [
                0,
                0,
                0
            ],
            "name" : "frame.003",
            "pbrMetallicRoughness" : {
                "baseColorFactor" : [
                    0,
                    0,
                    0,
                    1
                ],
                "metallicFactor" : 0.6767677068710327,
                "roughnessFactor" : 0.5527864098548889
            }
        },
        {
            "doubleSided" : true,
            "emissiveFactor" : [
                0,
                0,
                0
            ],
            "name" : "glass.003",
            "pbrMetallicRoughness" : {
                "baseColorFactor" : [
                    0.21960784494876862,
                    0.21176470816135406,
                    0.20000000298023224,
                    1
                ],
                "metallicFactor" : 1,
                "roughnessFactor" : 0.5527864098548889
            }
        },
        {
            "doubleSided" : true,
            "emissiveFactor" : [
                0,
                0,
                0
            ],
            "name" : "design.003",
            "pbrMetallicRoughness" : {
                "baseColorFactor" : [
                    0,
                    0,
                    0,
                    1
                ],
                "metallicFactor" : 0,
                "roughnessFactor" : 0.5527864098548889
            }
        }
    ],
    "meshes" : [
        {
            "name" : "the_ugly.001",
            "primitives" : [
                {
                    "attributes" : {
                        "POSITION" : 0,
                        "NORMAL" : 1,
                        "TEXCOORD_0" : 2
                    },
                    "indices" : 3,
                    "material" : 0
                },
                {
                    "attributes" : {
                        "POSITION" : 4,
                        "NORMAL" : 5,
                        "TEXCOORD_0" : 6
                    },
                    "indices" : 7,
                    "material" : 1
                },
                {
                    "attributes" : {
                        "POSITION" : 8,
                        "NORMAL" : 9,
                        "TEXCOORD_0" : 10
                    },
                    "indices" : 11,
                    "material" : 2
                }
            ]
        }
    ],
    "accessors" : [
        {
            "bufferView" : 0,
            "componentType" : 5126,
            "count" : 1680,
            "max" : [
                1.287589192390442,
                0.5489832758903503,
                0.16759814321994781
            ],
            "min" : [
                -1.1806299686431885,
                -0.5195798277854919,
                -0.8690550923347473
            ],
            "type" : "VEC3"
        },
        {
            "bufferView" : 1,
            "componentType" : 5126,
            "count" : 1680,
            "type" : "VEC3"
        },
        {
            "bufferView" : 2,
            "componentType" : 5126,
            "count" : 1680,
            "type" : "VEC2"
        },
        {
            "bufferView" : 3,
            "componentType" : 5123,
            "count" : 7404,
            "type" : "SCALAR"
        },
        {
            "bufferView" : 4,
            "componentType" : 5126,
            "count" : 1472,
            "max" : [
                5.533385753631592,
                1.507091760635376,
                -0.2029431313276291
            ],
            "min" : [
                -5.426426410675049,
                -1.7291043996810913,
                -1.643985629081726
            ],
            "type" : "VEC3"
        },
        {
            "bufferView" : 5,
            "componentType" : 5126,
            "count" : 1472,
            "type" : "VEC3"
        },
        {
            "bufferView" : 6,
            "componentType" : 5126,
            "count" : 1472,
            "type" : "VEC2"
        },
        {
            "bufferView" : 7,
            "componentType" : 5123,
            "count" : 7644,
            "type" : "SCALAR"
        },
        {
            "bufferView" : 8,
            "componentType" : 5126,
            "count" : 508,
            "max" : [
                0.8692409992218018,
                0.08494200557470322,
                -0.184697225689888
            ],
            "min" : [
                -0.7622816562652588,
                -0.1803305298089981,
                -0.6341702938079834
            ],
            "type" : "VEC3"
        },
        {
            "bufferView" : 9,
            "componentType" : 5126,
            "count" : 508,
            "type" : "VEC3"
        },
        {
            "bufferView" : 10,
            "componentType" : 5126,
            "count" : 508,
            "type" : "VEC2"
        },
        {
            "bufferView" : 11,
            "componentType" : 5123,
            "count" : 1452,
            "type" : "SCALAR"
        }
    ],
    "bufferViews" : [
        {
            "buffer" : 0,
            "byteLength" : 20160,
            "byteOffset" : 0
        },
        {
            "buffer" : 0,
            "byteLength" : 20160,
            "byteOffset" : 20160
        },
        {
            "buffer" : 0,
            "byteLength" : 13440,
            "byteOffset" : 40320
        },
        {
            "buffer" : 0,
            "byteLength" : 14808,
            "byteOffset" : 53760
        },
        {
            "buffer" : 0,
            "byteLength" : 17664,
            "byteOffset" : 68568
        },
        {
            "buffer" : 0,
            "byteLength" : 17664,
            "byteOffset" : 86232
        },
        {
            "buffer" : 0,
            "byteLength" : 11776,
            "byteOffset" : 103896
        },
        {
            "buffer" : 0,
            "byteLength" : 15288,
            "byteOffset" : 115672
        },
        {
            "buffer" : 0,
            "byteLength" : 6096,
            "byteOffset" : 130960
        },
        {
            "buffer" : 0,
            "byteLength" : 6096,
            "byteOffset" : 137056
        },
        {
            "buffer" : 0,
            "byteLength" : 4064,
            "byteOffset" : 143152
        },
        {
            "buffer" : 0,
            "byteLength" : 2904,
            "byteOffset" : 147216
        }
    ],
    "buffers" : [
        {
            "byteLength" : 150120,
            "uri" : "data:application/octet-stream;base64,"
        }
    ]
}
