{
    "asset" : {
        "generator" : "Khronos glTF Blender I/O v1.2.75",
        "version" : "2.0"
    },
    "scene" : 0,
    "scenes" : [
        {
            "extras" : {
                "glTF2ExportSettings" : {
                    "export_animations" : 1,
                    "export_cameras" : 0,
                    "export_colors" : 1,
                    "export_extras" : 1,
                    "export_force_sampling" : 0,
                    "export_format" : "GLTF_EMBEDDED",
                    "export_image_format" : "AUTO",
                    "export_lights" : 0,
                    "export_materials" : 1,
                    "export_morph" : 1,
                    "export_normals" : 1,
                    "export_skins" : 1,
                    "export_texcoords" : 1,
                    "export_yup" : 1
                }
            },
            "name" : "Scene",
            "nodes" : [
                0
            ]
        }
    ],
    "nodes" : [
        {
            "extras" : {
                "sparkar_optimization" : {
                    "InvertedReducePercentage" : 0
                },
                "spark_blender_addon" : 1
            },
            "mesh" : 0,
            "name" : "Four Base",
            "translation" : [
                7.553431510925293,
                -0.557891845703125,
                -12.11683464050293
            ]
        }
    ],
    "materials" : [
        {
            "doubleSided" : true,
            "emissiveFactor" : [
                0,
                0,
                0
            ],
            "name" : "Black_Trim",
            "pbrMetallicRoughness" : {
                "baseColorFactor" : [
                    0,
                    0,
                    0,
                    1
                ],
                "metallicFactor" : 0.5252525806427002,
                "roughnessFactor" : 0.5527864098548889
            }
        },
        {
            "doubleSided" : true,
            "emissiveFactor" : [
                0,
                0,
                0
            ],
            "name" : "Body_Color",
            "pbrMetallicRoughness" : {
                "baseColorFactor" : [
                    0.3333333432674408,
                    0.35686275362968445,
                    0.6117647290229797,
                    1
                ],
                "metallicFactor" : 1,
                "roughnessFactor" : 0.5527864098548889
            }
        },
        {
            "doubleSided" : true,
            "emissiveFactor" : [
                0,
                0,
                0
            ],
            "name" : "Metal_Trim",
            "pbrMetallicRoughness" : {
                "baseColorFactor" : [
                    0.6231929063796997,
                    0.634135901927948,
                    1,
                    1
                ],
                "metallicFactor" : 1,
                "roughnessFactor" : 0.383838415145874
            }
        },
        {
            "doubleSided" : true,
            "emissiveFactor" : [
                1,
                0,
                0.8046731352806091
            ],
            "name" : "Light_Bar.002",
            "pbrMetallicRoughness" : {}
        },
        {
            "emissiveFactor" : [
                0,
                1,
                0.02082158625125885
            ],
            "name" : "Light_Trim",
            "pbrMetallicRoughness" : {}
        },
        {
            "doubleSided" : true,
            "emissiveFactor" : [
                0,
                0,
                0
            ],
            "name" : "Body_Light_01",
            "pbrMetallicRoughness" : {
                "baseColorFactor" : [
                    0.32549020648002625,
                    0.16470588743686676,
                    0.9764705896377563,
                    1
                ],
                "metallicFactor" : 0.17171716690063477,
                "roughnessFactor" : 0.5527864098548889
            }
        },
        {
            "emissiveFactor" : [
                0,
                0,
                0
            ],
            "name" : "gem",
            "pbrMetallicRoughness" : {
                "baseColorFactor" : [
                    0.39135318994522095,
                    0.23976299166679382,
                    0.8000000715255737,
                    1
                ],
                "metallicFactor" : 0.7171717286109924,
                "roughnessFactor" : 0.040403999388217926
            }
        }
    ],
    "meshes" : [
        {
            "name" : "JE-eNP06L",
            "primitives" : [
                {
                    "attributes" : {
                        "POSITION" : 0,
                        "NORMAL" : 1,
                        "TEXCOORD_0" : 2
                    },
                    "indices" : 3,
                    "material" : 0
                },
                {
                    "attributes" : {
                        "POSITION" : 4,
                        "NORMAL" : 5,
                        "TEXCOORD_0" : 6
                    },
                    "indices" : 7,
                    "material" : 1
                },
                {
                    "attributes" : {
                        "POSITION" : 8,
                        "NORMAL" : 9,
                        "TEXCOORD_0" : 10
                    },
                    "indices" : 11,
                    "material" : 2
                },
                {
                    "attributes" : {
                        "POSITION" : 12,
                        "NORMAL" : 13,
                        "TEXCOORD_0" : 14
                    },
                    "indices" : 15,
                    "material" : 3
                },
                {
                    "attributes" : {
                        "POSITION" : 16,
                        "NORMAL" : 17,
                        "TEXCOORD_0" : 18
                    },
                    "indices" : 19,
                    "material" : 4
                },
                {
                    "attributes" : {
                        "POSITION" : 20,
                        "NORMAL" : 21,
                        "TEXCOORD_0" : 22
                    },
                    "indices" : 23,
                    "material" : 5
                },
                {
                    "attributes" : {
                        "POSITION" : 24,
                        "NORMAL" : 25,
                        "TEXCOORD_0" : 26
                    },
                    "indices" : 27,
                    "material" : 6
                },
                {
                    "attributes" : {
                        "POSITION" : 28,
                        "NORMAL" : 29,
                        "TEXCOORD_0" : 30
                    },
                    "indices" : 31,
                    "material" : 2
                }
            ]
        }
    ],
    "accessors" : [
        {
            "bufferView" : 0,
            "componentType" : 5126,
            "count" : 2037,
            "max" : [
                1.2495652437210083,
                -0.711669921875,
                2.542466163635254
            ],
            "min" : [
                -0.9887309074401855,
                -7.311062335968018,
                -2.5596516132354736
            ],
            "type" : "VEC3"
        },
        {
            "bufferView" : 1,
            "componentType" : 5126,
            "count" : 2037,
            "type" : "VEC3"
        },
        {
            "bufferView" : 2,
            "componentType" : 5126,
            "count" : 2037,
            "type" : "VEC2"
        },
        {
            "bufferView" : 3,
            "componentType" : 5123,
            "count" : 5217,
            "type" : "SCALAR"
        },
        {
            "bufferView" : 4,
            "componentType" : 5126,
            "count" : 1987,
            "max" : [
                1.251779556274414,
                -0.48638591170310974,
                2.6961073875427246
            ],
            "min" : [
                -1.2574458122253418,
                -7.484941005706787,
                -2.7210404872894287
            ],
            "type" : "VEC3"
        },
        {
            "bufferView" : 5,
            "componentType" : 5126,
            "count" : 1987,
            "type" : "VEC3"
        },
        {
            "bufferView" : 6,
            "componentType" : 5126,
            "count" : 1987,
            "type" : "VEC2"
        },
        {
            "bufferView" : 7,
            "componentType" : 5123,
            "count" : 7146,
            "type" : "SCALAR"
        },
        {
            "bufferView" : 8,
            "componentType" : 5126,
            "count" : 1159,
            "max" : [
                1.0561720132827759,
                -2.38785719871521,
                2.700363874435425
            ],
            "min" : [
                -1.0528138875961304,
                -7.496608257293701,
                -2.7229201793670654
            ],
            "type" : "VEC3"
        },
        {
            "bufferView" : 9,
            "componentType" : 5126,
            "count" : 1159,
            "type" : "VEC3"
        },
        {
            "bufferView" : 10,
            "componentType" : 5126,
            "count" : 1159,
            "type" : "VEC2"
        },
        {
            "bufferView" : 11,
            "componentType" : 5123,
            "count" : 3690,
            "type" : "SCALAR"
        },
        {
            "bufferView" : 12,
            "componentType" : 5126,
            "count" : 178,
            "max" : [
                0.97772216796875,
                -2.5724284648895264,
                2.548598051071167
            ],
            "min" : [
                -0.9839745759963989,
                -7.3231282234191895,
                -2.5650062561035156
            ],
            "type" : "VEC3"
        },
        {
            "bufferView" : 13,
            "componentType" : 5126,
            "count" : 178,
            "type" : "VEC3"
        },
        {
            "bufferView" : 14,
            "componentType" : 5126,
            "count" : 178,
            "type" : "VEC2"
        },
        {
            "bufferView" : 15,
            "componentType" : 5123,
            "count" : 537,
            "type" : "SCALAR"
        },
        {
            "bufferView" : 16,
            "componentType" : 5126,
            "count" : 81,
            "max" : [
                1.2639240026474,
                -2.715606689453125,
                2.53237247467041
            ],
            "min" : [
                -0.5275141000747681,
                -7.160245418548584,
                -2.2783844470977783
            ],
            "type" : "VEC3"
        },
        {
            "bufferView" : 17,
            "componentType" : 5126,
            "count" : 81,
            "type" : "VEC3"
        },
        {
            "bufferView" : 18,
            "componentType" : 5126,
            "count" : 81,
            "type" : "VEC2"
        },
        {
            "bufferView" : 19,
            "componentType" : 5123,
            "count" : 369,
            "type" : "SCALAR"
        },
        {
            "bufferView" : 20,
            "componentType" : 5126,
            "count" : 62,
            "max" : [
                0.47084441781044006,
                -3.162550449371338,
                0.5208409428596497
            ],
            "min" : [
                0.13972695171833038,
                -5.858819484710693,
                -0.3220919966697693
            ],
            "type" : "VEC3"
        },
        {
            "bufferView" : 21,
            "componentType" : 5126,
            "count" : 62,
            "type" : "VEC3"
        },
        {
            "bufferView" : 22,
            "componentType" : 5126,
            "count" : 62,
            "type" : "VEC2"
        },
        {
            "bufferView" : 23,
            "componentType" : 5123,
            "count" : 222,
            "type" : "SCALAR"
        },
        {
            "bufferView" : 24,
            "componentType" : 5126,
            "count" : 24,
            "max" : [
                0.17784029245376587,
                -0.73876953125,
                0.17655836045742035
            ],
            "min" : [
                -0.17694991827011108,
                -1.44610595703125,
                -0.17820334434509277
            ],
            "type" : "VEC3"
        },
        {
            "bufferView" : 25,
            "componentType" : 5126,
            "count" : 24,
            "type" : "VEC3"
        },
        {
            "bufferView" : 26,
            "componentType" : 5126,
            "count" : 24,
            "type" : "VEC2"
        },
        {
            "bufferView" : 27,
            "componentType" : 5123,
            "count" : 48,
            "type" : "SCALAR"
        },
        {
            "bufferView" : 28,
            "componentType" : 5126,
            "count" : 106,
            "max" : [
                0.2726207971572876,
                0.0012359615648165345,
                0.27262142300605774
            ],
            "min" : [
                -0.27262061834335327,
                -0.488037109375,
                -0.27261999249458313
            ],
            "type" : "VEC3"
        },
        {
            "bufferView" : 29,
            "componentType" : 5126,
            "count" : 106,
            "type" : "VEC3"
        },
        {
            "bufferView" : 30,
            "componentType" : 5126,
            "count" : 106,
            "type" : "VEC2"
        },
        {
            "bufferView" : 31,
            "componentType" : 5123,
            "count" : 276,
            "type" : "SCALAR"
        }
    ],
    "bufferViews" : [
        {
            "buffer" : 0,
            "byteLength" : 24444,
            "byteOffset" : 0
        },
        {
            "buffer" : 0,
            "byteLength" : 24444,
            "byteOffset" : 24444
        },
        {
            "buffer" : 0,
            "byteLength" : 16296,
            "byteOffset" : 48888
        },
        {
            "buffer" : 0,
            "byteLength" : 10434,
            "byteOffset" : 65184
        },
        {
            "buffer" : 0,
            "byteLength" : 23844,
            "byteOffset" : 75620
        },
        {
            "buffer" : 0,
            "byteLength" : 23844,
            "byteOffset" : 99464
        },
        {
            "buffer" : 0,
            "byteLength" : 15896,
            "byteOffset" : 123308
        },
        {
            "buffer" : 0,
            "byteLength" : 14292,
            "byteOffset" : 139204
        },
        {
            "buffer" : 0,
            "byteLength" : 13908,
            "byteOffset" : 153496
        },
        {
            "buffer" : 0,
            "byteLength" : 13908,
            "byteOffset" : 167404
        },
        {
            "buffer" : 0,
            "byteLength" : 9272,
            "byteOffset" : 181312
        },
        {
            "buffer" : 0,
            "byteLength" : 7380,
            "byteOffset" : 190584
        },
        {
            "buffer" : 0,
            "byteLength" : 2136,
            "byteOffset" : 197964
        },
        {
            "buffer" : 0,
            "byteLength" : 2136,
            "byteOffset" : 200100
        },
        {
            "buffer" : 0,
            "byteLength" : 1424,
            "byteOffset" : 202236
        },
        {
            "buffer" : 0,
            "byteLength" : 1074,
            "byteOffset" : 203660
        },
        {
            "buffer" : 0,
            "byteLength" : 972,
            "byteOffset" : 204736
        },
        {
            "buffer" : 0,
            "byteLength" : 972,
            "byteOffset" : 205708
        },
        {
            "buffer" : 0,
            "byteLength" : 648,
            "byteOffset" : 206680
        },
        {
            "buffer" : 0,
            "byteLength" : 738,
            "byteOffset" : 207328
        },
        {
            "buffer" : 0,
            "byteLength" : 744,
            "byteOffset" : 208068
        },
        {
            "buffer" : 0,
            "byteLength" : 744,
            "byteOffset" : 208812
        },
        {
            "buffer" : 0,
            "byteLength" : 496,
            "byteOffset" : 209556
        },
        {
            "buffer" : 0,
            "byteLength" : 444,
            "byteOffset" : 210052
        },
        {
            "buffer" : 0,
            "byteLength" : 288,
            "byteOffset" : 210496
        },
        {
            "buffer" : 0,
            "byteLength" : 288,
            "byteOffset" : 210784
        },
        {
            "buffer" : 0,
            "byteLength" : 192,
            "byteOffset" : 211072
        },
        {
            "buffer" : 0,
            "byteLength" : 96,
            "byteOffset" : 211264
        },
        {
            "buffer" : 0,
            "byteLength" : 1272,
            "byteOffset" : 211360
        },
        {
            "buffer" : 0,
            "byteLength" : 1272,
            "byteOffset" : 212632
        },
        {
            "buffer" : 0,
            "byteLength" : 848,
            "byteOffset" : 213904
        },
        {
            "buffer" : 0,
            "byteLength" : 552,
            "byteOffset" : 214752
        }
    ],
    "buffers" : [
        {
            "byteLength" : 215304,
            "uri" : "data:application/octet-stream;base64,"
        }
    ]
}
