{
    "asset" : {
        "generator" : "Khronos glTF Blender I/O v1.2.75",
        "version" : "2.0"
    },
    "scene" : 0,
    "scenes" : [
        {
            "extras" : {
                "glTF2ExportSettings" : {
                    "export_animations" : 1,
                    "export_cameras" : 0,
                    "export_colors" : 1,
                    "export_extras" : 1,
                    "export_force_sampling" : 0,
                    "export_format" : "GLTF_EMBEDDED",
                    "export_image_format" : "AUTO",
                    "export_lights" : 0,
                    "export_materials" : 1,
                    "export_morph" : 1,
                    "export_normals" : 1,
                    "export_skins" : 1,
                    "export_texcoords" : 1,
                    "export_yup" : 1
                }
            },
            "name" : "Scene",
            "nodes" : [
                0
            ]
        }
    ],
    "nodes" : [
        {
            "extras" : {
                "sparkar_optimization" : {
                    "InvertedReducePercentage" : 0
                },
                "spark_blender_addon" : 1
            },
            "mesh" : 0,
            "name" : "Sun Base",
            "translation" : [
                7.547170162200928,
                -0.5802722573280334,
                -12.129523277282715
            ]
        }
    ],
    "materials" : [
        {
            "doubleSided" : true,
            "name" : "Body_CHR",
            "pbrMetallicRoughness" : {}
        },
        {
            "doubleSided" : true,
            "emissiveFactor" : [
                0,
                0,
                0
            ],
            "name" : "Black_Trim.001",
            "pbrMetallicRoughness" : {
                "baseColorFactor" : [
                    0,
                    0,
                    0,
                    1
                ],
                "metallicFactor" : 0,
                "roughnessFactor" : 0.5527864098548889
            }
        },
        {
            "doubleSided" : true,
            "emissiveFactor" : [
                0,
                0,
                0
            ],
            "name" : "Body_Color",
            "pbrMetallicRoughness" : {
                "baseColorFactor" : [
                    0.3333333432674408,
                    0.35686275362968445,
                    0.6117647290229797,
                    1
                ],
                "metallicFactor" : 1,
                "roughnessFactor" : 0.5527864098548889
            }
        },
        {
            "doubleSided" : true,
            "emissiveFactor" : [
                1,
                0,
                0.8046731352806091
            ],
            "name" : "Light_Bar.001",
            "pbrMetallicRoughness" : {}
        },
        {
            "doubleSided" : true,
            "emissiveFactor" : [
                0,
                0,
                0
            ],
            "name" : "Metal_Trim",
            "pbrMetallicRoughness" : {
                "baseColorFactor" : [
                    0.6231929063796997,
                    0.634135901927948,
                    1,
                    1
                ],
                "metallicFactor" : 1,
                "roughnessFactor" : 0.383838415145874
            }
        },
        {
            "emissiveFactor" : [
                0,
                1,
                0.02082158625125885
            ],
            "name" : "Light_Trim",
            "pbrMetallicRoughness" : {}
        },
        {
            "doubleSided" : true,
            "emissiveFactor" : [
                0,
                0,
                0
            ],
            "name" : "Body_Light_02",
            "pbrMetallicRoughness" : {
                "baseColorFactor" : [
                    0.8588235378265381,
                    0.8352941274642944,
                    0.1568627506494522,
                    1
                ],
                "metallicFactor" : 0,
                "roughnessFactor" : 0.5527864098548889
            }
        },
        {
            "emissiveFactor" : [
                0,
                0,
                0
            ],
            "name" : "gem",
            "pbrMetallicRoughness" : {
                "baseColorFactor" : [
                    0.39135318994522095,
                    0.23976299166679382,
                    0.8000000715255737,
                    1
                ],
                "metallicFactor" : 0.7171717286109924,
                "roughnessFactor" : 0.040403999388217926
            }
        }
    ],
    "meshes" : [
        {
            "name" : "JE-eNP02L",
            "primitives" : [
                {
                    "attributes" : {
                        "POSITION" : 0,
                        "NORMAL" : 1,
                        "TEXCOORD_0" : 2,
                        "TEXCOORD_1" : 3
                    },
                    "indices" : 4,
                    "material" : 0
                },
                {
                    "attributes" : {
                        "POSITION" : 5,
                        "NORMAL" : 6,
                        "TEXCOORD_0" : 7,
                        "TEXCOORD_1" : 8
                    },
                    "indices" : 9,
                    "material" : 1
                },
                {
                    "attributes" : {
                        "POSITION" : 10,
                        "NORMAL" : 11,
                        "TEXCOORD_0" : 12,
                        "TEXCOORD_1" : 13
                    },
                    "indices" : 14,
                    "material" : 2
                },
                {
                    "attributes" : {
                        "POSITION" : 15,
                        "NORMAL" : 16,
                        "TEXCOORD_0" : 17,
                        "TEXCOORD_1" : 18
                    },
                    "indices" : 19,
                    "material" : 3
                },
                {
                    "attributes" : {
                        "POSITION" : 20,
                        "NORMAL" : 21,
                        "TEXCOORD_0" : 22,
                        "TEXCOORD_1" : 23
                    },
                    "indices" : 24,
                    "material" : 4
                },
                {
                    "attributes" : {
                        "POSITION" : 25,
                        "NORMAL" : 26,
                        "TEXCOORD_0" : 27,
                        "TEXCOORD_1" : 28
                    },
                    "indices" : 29,
                    "material" : 5
                },
                {
                    "attributes" : {
                        "POSITION" : 30,
                        "NORMAL" : 31,
                        "TEXCOORD_0" : 32,
                        "TEXCOORD_1" : 33
                    },
                    "indices" : 34,
                    "material" : 6
                },
                {
                    "attributes" : {
                        "POSITION" : 35,
                        "NORMAL" : 36,
                        "TEXCOORD_0" : 37,
                        "TEXCOORD_1" : 38
                    },
                    "indices" : 39,
                    "material" : 7
                },
                {
                    "attributes" : {
                        "POSITION" : 40,
                        "NORMAL" : 41,
                        "TEXCOORD_0" : 42,
                        "TEXCOORD_1" : 43
                    },
                    "indices" : 44,
                    "material" : 6
                },
                {
                    "attributes" : {
                        "POSITION" : 45,
                        "NORMAL" : 46,
                        "TEXCOORD_0" : 47,
                        "TEXCOORD_1" : 48
                    },
                    "indices" : 49,
                    "material" : 4
                }
            ]
        }
    ],
    "accessors" : [
        {
            "bufferView" : 0,
            "componentType" : 5126,
            "count" : 1053,
            "max" : [
                0.8869562149047852,
                -3.580303907394409,
                1.7474180459976196
            ],
            "min" : [
                -0.3048167824745178,
                -6.468240737915039,
                -1.2590548992156982
            ],
            "type" : "VEC3"
        },
        {
            "bufferView" : 1,
            "componentType" : 5126,
            "count" : 1053,
            "type" : "VEC3"
        },
        {
            "bufferView" : 2,
            "componentType" : 5126,
            "count" : 1053,
            "type" : "VEC2"
        },
        {
            "bufferView" : 3,
            "componentType" : 5126,
            "count" : 1053,
            "type" : "VEC2"
        },
        {
            "bufferView" : 4,
            "componentType" : 5123,
            "count" : 2613,
            "type" : "SCALAR"
        },
        {
            "bufferView" : 5,
            "componentType" : 5126,
            "count" : 1258,
            "max" : [
                1.298160433769226,
                -0.70428466796875,
                2.6221582889556885
            ],
            "min" : [
                -0.9971039891242981,
                -7.973456859588623,
                -2.5252013206481934
            ],
            "type" : "VEC3"
        },
        {
            "bufferView" : 6,
            "componentType" : 5126,
            "count" : 1258,
            "type" : "VEC3"
        },
        {
            "bufferView" : 7,
            "componentType" : 5126,
            "count" : 1258,
            "type" : "VEC2"
        },
        {
            "bufferView" : 8,
            "componentType" : 5126,
            "count" : 1258,
            "type" : "VEC2"
        },
        {
            "bufferView" : 9,
            "componentType" : 5123,
            "count" : 2463,
            "type" : "SCALAR"
        },
        {
            "bufferView" : 10,
            "componentType" : 5126,
            "count" : 2833,
            "max" : [
                1.302354335784912,
                -0.47972333431243896,
                2.771681547164917
            ],
            "min" : [
                -1.2935070991516113,
                -8.25433349609375,
                -2.7360548973083496
            ],
            "type" : "VEC3"
        },
        {
            "bufferView" : 11,
            "componentType" : 5126,
            "count" : 2833,
            "type" : "VEC3"
        },
        {
            "bufferView" : 12,
            "componentType" : 5126,
            "count" : 2833,
            "type" : "VEC2"
        },
        {
            "bufferView" : 13,
            "componentType" : 5126,
            "count" : 2833,
            "type" : "VEC2"
        },
        {
            "bufferView" : 14,
            "componentType" : 5123,
            "count" : 8280,
            "type" : "SCALAR"
        },
        {
            "bufferView" : 15,
            "componentType" : 5126,
            "count" : 152,
            "max" : [
                1.0363448858261108,
                -2.564836025238037,
                2.600503444671631
            ],
            "min" : [
                -1.0270730257034302,
                -8.068830490112305,
                -2.613541603088379
            ],
            "type" : "VEC3"
        },
        {
            "bufferView" : 16,
            "componentType" : 5126,
            "count" : 152,
            "type" : "VEC3"
        },
        {
            "bufferView" : 17,
            "componentType" : 5126,
            "count" : 152,
            "type" : "VEC2"
        },
        {
            "bufferView" : 18,
            "componentType" : 5126,
            "count" : 152,
            "type" : "VEC2"
        },
        {
            "bufferView" : 19,
            "componentType" : 5123,
            "count" : 363,
            "type" : "SCALAR"
        },
        {
            "bufferView" : 20,
            "componentType" : 5126,
            "count" : 2146,
            "max" : [
                1.0758482217788696,
                -2.387763023376465,
                2.7851788997650146
            ],
            "min" : [
                -1.0872070789337158,
                -8.266003608703613,
                -2.742563247680664
            ],
            "type" : "VEC3"
        },
        {
            "bufferView" : 21,
            "componentType" : 5126,
            "count" : 2146,
            "type" : "VEC3"
        },
        {
            "bufferView" : 22,
            "componentType" : 5126,
            "count" : 2146,
            "type" : "VEC2"
        },
        {
            "bufferView" : 23,
            "componentType" : 5126,
            "count" : 2146,
            "type" : "VEC2"
        },
        {
            "bufferView" : 24,
            "componentType" : 5123,
            "count" : 4824,
            "type" : "SCALAR"
        },
        {
            "bufferView" : 25,
            "componentType" : 5126,
            "count" : 44,
            "max" : [
                1.298160433769226,
                -2.664499044418335,
                2.620387077331543
            ],
            "min" : [
                -0.5349889397621155,
                -7.966577529907227,
                -2.3547942638397217
            ],
            "type" : "VEC3"
        },
        {
            "bufferView" : 26,
            "componentType" : 5126,
            "count" : 44,
            "type" : "VEC3"
        },
        {
            "bufferView" : 27,
            "componentType" : 5126,
            "count" : 44,
            "type" : "VEC2"
        },
        {
            "bufferView" : 28,
            "componentType" : 5126,
            "count" : 44,
            "type" : "VEC2"
        },
        {
            "bufferView" : 29,
            "componentType" : 5123,
            "count" : 141,
            "type" : "SCALAR"
        },
        {
            "bufferView" : 30,
            "componentType" : 5126,
            "count" : 597,
            "max" : [
                0.8123250007629395,
                -3.869889736175537,
                1.4876357316970825
            ],
            "min" : [
                -0.4229574203491211,
                -6.699371337890625,
                -1.3663160800933838
            ],
            "type" : "VEC3"
        },
        {
            "bufferView" : 31,
            "componentType" : 5126,
            "count" : 597,
            "type" : "VEC3"
        },
        {
            "bufferView" : 32,
            "componentType" : 5126,
            "count" : 597,
            "type" : "VEC2"
        },
        {
            "bufferView" : 33,
            "componentType" : 5126,
            "count" : 597,
            "type" : "VEC2"
        },
        {
            "bufferView" : 34,
            "componentType" : 5123,
            "count" : 1473,
            "type" : "SCALAR"
        },
        {
            "bufferView" : 35,
            "componentType" : 5126,
            "count" : 24,
            "max" : [
                0.18005484342575073,
                -0.73138427734375,
                0.1772642582654953
            ],
            "min" : [
                -0.1746811419725418,
                -1.438720703125,
                -0.17750003933906555
            ],
            "type" : "VEC3"
        },
        {
            "bufferView" : 36,
            "componentType" : 5126,
            "count" : 24,
            "type" : "VEC3"
        },
        {
            "bufferView" : 37,
            "componentType" : 5126,
            "count" : 24,
            "type" : "VEC2"
        },
        {
            "bufferView" : 38,
            "componentType" : 5126,
            "count" : 24,
            "type" : "VEC2"
        },
        {
            "bufferView" : 39,
            "componentType" : 5123,
            "count" : 48,
            "type" : "SCALAR"
        },
        {
            "bufferView" : 40,
            "componentType" : 5126,
            "count" : 121,
            "max" : [
                0.7096651196479797,
                -3.503710985183716,
                1.7693305015563965
            ],
            "min" : [
                -0.7140271663665771,
                -7.173955917358398,
                -1.7472773790359497
            ],
            "type" : "VEC3"
        },
        {
            "bufferView" : 41,
            "componentType" : 5126,
            "count" : 121,
            "type" : "VEC3"
        },
        {
            "bufferView" : 42,
            "componentType" : 5126,
            "count" : 121,
            "type" : "VEC2"
        },
        {
            "bufferView" : 43,
            "componentType" : 5126,
            "count" : 121,
            "type" : "VEC2"
        },
        {
            "bufferView" : 44,
            "componentType" : 5123,
            "count" : 246,
            "type" : "SCALAR"
        },
        {
            "bufferView" : 45,
            "componentType" : 5126,
            "count" : 113,
            "max" : [
                0.27262061834335327,
                0.0012207026593387127,
                0.2726218104362488
            ],
            "min" : [
                -0.27262088656425476,
                -0.488037109375,
                -0.27261993288993835
            ],
            "type" : "VEC3"
        },
        {
            "bufferView" : 46,
            "componentType" : 5126,
            "count" : 113,
            "type" : "VEC3"
        },
        {
            "bufferView" : 47,
            "componentType" : 5126,
            "count" : 113,
            "type" : "VEC2"
        },
        {
            "bufferView" : 48,
            "componentType" : 5126,
            "count" : 113,
            "type" : "VEC2"
        },
        {
            "bufferView" : 49,
            "componentType" : 5123,
            "count" : 276,
            "type" : "SCALAR"
        }
    ],
    "bufferViews" : [
        {
            "buffer" : 0,
            "byteLength" : 12636,
            "byteOffset" : 0
        },
        {
            "buffer" : 0,
            "byteLength" : 12636,
            "byteOffset" : 12636
        },
        {
            "buffer" : 0,
            "byteLength" : 8424,
            "byteOffset" : 25272
        },
        {
            "buffer" : 0,
            "byteLength" : 8424,
            "byteOffset" : 33696
        },
        {
            "buffer" : 0,
            "byteLength" : 5226,
            "byteOffset" : 42120
        },
        {
            "buffer" : 0,
            "byteLength" : 15096,
            "byteOffset" : 47348
        },
        {
            "buffer" : 0,
            "byteLength" : 15096,
            "byteOffset" : 62444
        },
        {
            "buffer" : 0,
            "byteLength" : 10064,
            "byteOffset" : 77540
        },
        {
            "buffer" : 0,
            "byteLength" : 10064,
            "byteOffset" : 87604
        },
        {
            "buffer" : 0,
            "byteLength" : 4926,
            "byteOffset" : 97668
        },
        {
            "buffer" : 0,
            "byteLength" : 33996,
            "byteOffset" : 102596
        },
        {
            "buffer" : 0,
            "byteLength" : 33996,
            "byteOffset" : 136592
        },
        {
            "buffer" : 0,
            "byteLength" : 22664,
            "byteOffset" : 170588
        },
        {
            "buffer" : 0,
            "byteLength" : 22664,
            "byteOffset" : 193252
        },
        {
            "buffer" : 0,
            "byteLength" : 16560,
            "byteOffset" : 215916
        },
        {
            "buffer" : 0,
            "byteLength" : 1824,
            "byteOffset" : 232476
        },
        {
            "buffer" : 0,
            "byteLength" : 1824,
            "byteOffset" : 234300
        },
        {
            "buffer" : 0,
            "byteLength" : 1216,
            "byteOffset" : 236124
        },
        {
            "buffer" : 0,
            "byteLength" : 1216,
            "byteOffset" : 237340
        },
        {
            "buffer" : 0,
            "byteLength" : 726,
            "byteOffset" : 238556
        },
        {
            "buffer" : 0,
            "byteLength" : 25752,
            "byteOffset" : 239284
        },
        {
            "buffer" : 0,
            "byteLength" : 25752,
            "byteOffset" : 265036
        },
        {
            "buffer" : 0,
            "byteLength" : 17168,
            "byteOffset" : 290788
        },
        {
            "buffer" : 0,
            "byteLength" : 17168,
            "byteOffset" : 307956
        },
        {
            "buffer" : 0,
            "byteLength" : 9648,
            "byteOffset" : 325124
        },
        {
            "buffer" : 0,
            "byteLength" : 528,
            "byteOffset" : 334772
        },
        {
            "buffer" : 0,
            "byteLength" : 528,
            "byteOffset" : 335300
        },
        {
            "buffer" : 0,
            "byteLength" : 352,
            "byteOffset" : 335828
        },
        {
            "buffer" : 0,
            "byteLength" : 352,
            "byteOffset" : 336180
        },
        {
            "buffer" : 0,
            "byteLength" : 282,
            "byteOffset" : 336532
        },
        {
            "buffer" : 0,
            "byteLength" : 7164,
            "byteOffset" : 336816
        },
        {
            "buffer" : 0,
            "byteLength" : 7164,
            "byteOffset" : 343980
        },
        {
            "buffer" : 0,
            "byteLength" : 4776,
            "byteOffset" : 351144
        },
        {
            "buffer" : 0,
            "byteLength" : 4776,
            "byteOffset" : 355920
        },
        {
            "buffer" : 0,
            "byteLength" : 2946,
            "byteOffset" : 360696
        },
        {
            "buffer" : 0,
            "byteLength" : 288,
            "byteOffset" : 363644
        },
        {
            "buffer" : 0,
            "byteLength" : 288,
            "byteOffset" : 363932
        },
        {
            "buffer" : 0,
            "byteLength" : 192,
            "byteOffset" : 364220
        },
        {
            "buffer" : 0,
            "byteLength" : 192,
            "byteOffset" : 364412
        },
        {
            "buffer" : 0,
            "byteLength" : 96,
            "byteOffset" : 364604
        },
        {
            "buffer" : 0,
            "byteLength" : 1452,
            "byteOffset" : 364700
        },
        {
            "buffer" : 0,
            "byteLength" : 1452,
            "byteOffset" : 366152
        },
        {
            "buffer" : 0,
            "byteLength" : 968,
            "byteOffset" : 367604
        },
        {
            "buffer" : 0,
            "byteLength" : 968,
            "byteOffset" : 368572
        },
        {
            "buffer" : 0,
            "byteLength" : 492,
            "byteOffset" : 369540
        },
        {
            "buffer" : 0,
            "byteLength" : 1356,
            "byteOffset" : 370032
        },
        {
            "buffer" : 0,
            "byteLength" : 1356,
            "byteOffset" : 371388
        },
        {
            "buffer" : 0,
            "byteLength" : 904,
            "byteOffset" : 372744
        },
        {
            "buffer" : 0,
            "byteLength" : 904,
            "byteOffset" : 373648
        },
        {
            "buffer" : 0,
            "byteLength" : 552,
            "byteOffset" : 374552
        }
    ],
    "buffers" : [
        {
            "byteLength" : 375104,
            "uri" : "data:application/octet-stream;base64,"
        }
    ]
}
