{
    "asset" : {
        "generator" : "Khronos glTF Blender I/O v1.2.75",
        "version" : "2.0"
    },
    "scene" : 0,
    "scenes" : [
        {
            "extras" : {
                "glTF2ExportSettings" : {
                    "export_animations" : 1,
                    "export_cameras" : 0,
                    "export_colors" : 1,
                    "export_extras" : 1,
                    "export_force_sampling" : 0,
                    "export_format" : "GLTF_EMBEDDED",
                    "export_image_format" : "AUTO",
                    "export_lights" : 0,
                    "export_materials" : 1,
                    "export_morph" : 1,
                    "export_normals" : 1,
                    "export_skins" : 1,
                    "export_texcoords" : 1,
                    "export_yup" : 1
                }
            },
            "name" : "Scene",
            "nodes" : [
                0
            ]
        }
    ],
    "nodes" : [
        {
            "extras" : {
                "sparkar_optimization" : {
                    "InvertedReducePercentage" : 0
                },
                "spark_blender_addon" : 1
            },
            "mesh" : 0,
            "name" : "the_good.Shape",
            "translation" : [
                0.016523003578186035,
                3.2344675064086914,
                -1.7095050811767578
            ]
        }
    ],
    "materials" : [
        {
            "doubleSided" : true,
            "emissiveFactor" : [
                0,
                0,
                0
            ],
            "name" : "frame",
            "pbrMetallicRoughness" : {
                "baseColorFactor" : [
                    0,
                    0,
                    0,
                    1
                ],
                "metallicFactor" : 0.5252525210380554,
                "roughnessFactor" : 0.5527864098548889
            }
        },
        {
            "doubleSided" : true,
            "emissiveFactor" : [
                0,
                0,
                0
            ],
            "name" : "rubber",
            "pbrMetallicRoughness" : {
                "baseColorFactor" : [
                    0,
                    0,
                    0,
                    1
                ],
                "metallicFactor" : 0,
                "roughnessFactor" : 0.5527864098548889
            }
        },
        {
            "doubleSided" : true,
            "name" : "glass",
            "pbrMetallicRoughness" : {}
        },
        {
            "doubleSided" : true,
            "emissiveFactor" : [
                0,
                0,
                0
            ],
            "name" : "design",
            "pbrMetallicRoughness" : {
                "baseColorFactor" : [
                    0,
                    0,
                    0,
                    1
                ],
                "metallicFactor" : 0,
                "roughnessFactor" : 0.5527864098548889
            }
        },
        {
            "doubleSided" : true,
            "name" : "nosepad",
            "pbrMetallicRoughness" : {}
        }
    ],
    "meshes" : [
        {
            "name" : "the_good",
            "primitives" : [
                {
                    "attributes" : {
                        "POSITION" : 0,
                        "NORMAL" : 1,
                        "TEXCOORD_0" : 2
                    },
                    "indices" : 3,
                    "material" : 0
                },
                {
                    "attributes" : {
                        "POSITION" : 4,
                        "NORMAL" : 5,
                        "TEXCOORD_0" : 6
                    },
                    "indices" : 7,
                    "material" : 1
                },
                {
                    "attributes" : {
                        "POSITION" : 8,
                        "NORMAL" : 9,
                        "TEXCOORD_0" : 10
                    },
                    "indices" : 11,
                    "material" : 2
                },
                {
                    "attributes" : {
                        "POSITION" : 12,
                        "NORMAL" : 13,
                        "TEXCOORD_0" : 14
                    },
                    "indices" : 15,
                    "material" : 3
                },
                {
                    "attributes" : {
                        "POSITION" : 16,
                        "NORMAL" : 17,
                        "TEXCOORD_0" : 18
                    },
                    "indices" : 19,
                    "material" : 4
                }
            ]
        }
    ],
    "accessors" : [
        {
            "bufferView" : 0,
            "componentType" : 5126,
            "count" : 860,
            "max" : [
                7.735261917114258,
                1.7761777639389038,
                0.6142198443412781
            ],
            "min" : [
                -7.7684102058410645,
                -1.958614706993103,
                -12.430248260498047
            ],
            "type" : "VEC3"
        },
        {
            "bufferView" : 1,
            "componentType" : 5126,
            "count" : 860,
            "type" : "VEC3"
        },
        {
            "bufferView" : 2,
            "componentType" : 5126,
            "count" : 860,
            "type" : "VEC2"
        },
        {
            "bufferView" : 3,
            "componentType" : 5123,
            "count" : 2916,
            "type" : "SCALAR"
        },
        {
            "bufferView" : 4,
            "componentType" : 5126,
            "count" : 142,
            "max" : [
                7.766204357147217,
                1.0618939399719238,
                -12.073254585266113
            ],
            "min" : [
                -7.799352169036865,
                -1.7384690046310425,
                -14.161006927490234
            ],
            "type" : "VEC3"
        },
        {
            "bufferView" : 5,
            "componentType" : 5126,
            "count" : 142,
            "type" : "VEC3"
        },
        {
            "bufferView" : 6,
            "componentType" : 5126,
            "count" : 142,
            "type" : "VEC2"
        },
        {
            "bufferView" : 7,
            "componentType" : 5123,
            "count" : 588,
            "type" : "SCALAR"
        },
        {
            "bufferView" : 8,
            "componentType" : 5126,
            "count" : 427,
            "max" : [
                6.387811183929443,
                1.6790887117385864,
                0.38325005769729614
            ],
            "min" : [
                -6.4209699630737305,
                -1.8848210573196411,
                -1.9524590969085693
            ],
            "type" : "VEC3"
        },
        {
            "bufferView" : 9,
            "componentType" : 5126,
            "count" : 427,
            "type" : "VEC3"
        },
        {
            "bufferView" : 10,
            "componentType" : 5126,
            "count" : 427,
            "type" : "VEC2"
        },
        {
            "bufferView" : 11,
            "componentType" : 5123,
            "count" : 2118,
            "type" : "SCALAR"
        },
        {
            "bufferView" : 12,
            "componentType" : 5126,
            "count" : 82,
            "max" : [
                1.104314923286438,
                -0.2890183627605438,
                -0.18216729164123535
            ],
            "min" : [
                -1.1373844146728516,
                -0.48676297068595886,
                -0.3812788426876068
            ],
            "type" : "VEC3"
        },
        {
            "bufferView" : 13,
            "componentType" : 5126,
            "count" : 82,
            "type" : "VEC3"
        },
        {
            "bufferView" : 14,
            "componentType" : 5126,
            "count" : 82,
            "type" : "VEC2"
        },
        {
            "bufferView" : 15,
            "componentType" : 5123,
            "count" : 216,
            "type" : "SCALAR"
        },
        {
            "bufferView" : 16,
            "componentType" : 5126,
            "count" : 111,
            "max" : [
                1.1010863780975342,
                0.0776938870549202,
                -0.1421831101179123
            ],
            "min" : [
                -1.1399716138839722,
                -0.9044963121414185,
                -0.6132626533508301
            ],
            "type" : "VEC3"
        },
        {
            "bufferView" : 17,
            "componentType" : 5126,
            "count" : 111,
            "type" : "VEC3"
        },
        {
            "bufferView" : 18,
            "componentType" : 5126,
            "count" : 111,
            "type" : "VEC2"
        },
        {
            "bufferView" : 19,
            "componentType" : 5123,
            "count" : 468,
            "type" : "SCALAR"
        }
    ],
    "bufferViews" : [
        {
            "buffer" : 0,
            "byteLength" : 10320,
            "byteOffset" : 0
        },
        {
            "buffer" : 0,
            "byteLength" : 10320,
            "byteOffset" : 10320
        },
        {
            "buffer" : 0,
            "byteLength" : 6880,
            "byteOffset" : 20640
        },
        {
            "buffer" : 0,
            "byteLength" : 5832,
            "byteOffset" : 27520
        },
        {
            "buffer" : 0,
            "byteLength" : 1704,
            "byteOffset" : 33352
        },
        {
            "buffer" : 0,
            "byteLength" : 1704,
            "byteOffset" : 35056
        },
        {
            "buffer" : 0,
            "byteLength" : 1136,
            "byteOffset" : 36760
        },
        {
            "buffer" : 0,
            "byteLength" : 1176,
            "byteOffset" : 37896
        },
        {
            "buffer" : 0,
            "byteLength" : 5124,
            "byteOffset" : 39072
        },
        {
            "buffer" : 0,
            "byteLength" : 5124,
            "byteOffset" : 44196
        },
        {
            "buffer" : 0,
            "byteLength" : 3416,
            "byteOffset" : 49320
        },
        {
            "buffer" : 0,
            "byteLength" : 4236,
            "byteOffset" : 52736
        },
        {
            "buffer" : 0,
            "byteLength" : 984,
            "byteOffset" : 56972
        },
        {
            "buffer" : 0,
            "byteLength" : 984,
            "byteOffset" : 57956
        },
        {
            "buffer" : 0,
            "byteLength" : 656,
            "byteOffset" : 58940
        },
        {
            "buffer" : 0,
            "byteLength" : 432,
            "byteOffset" : 59596
        },
        {
            "buffer" : 0,
            "byteLength" : 1332,
            "byteOffset" : 60028
        },
        {
            "buffer" : 0,
            "byteLength" : 1332,
            "byteOffset" : 61360
        },
        {
            "buffer" : 0,
            "byteLength" : 888,
            "byteOffset" : 62692
        },
        {
            "buffer" : 0,
            "byteLength" : 936,
            "byteOffset" : 63580
        }
    ],
    "buffers" : [
        {
            "byteLength" : 64516,
            "uri" : "data:application/octet-stream;base64,"
        }
    ]
}
